<mxfile host="65bd71144e">
    <diagram id="CBjhklYpDrhJx7aeajbG" name="Page-1">
        <mxGraphModel dx="882" dy="562" grid="1" gridSize="10" guides="1" tooltips="1" connect="1" arrows="1" fold="1" page="1" pageScale="1" pageWidth="850" pageHeight="1100" math="0" shadow="0">
            <root>
                <mxCell id="0"/>
                <mxCell id="1" parent="0"/>
                <mxCell id="29" style="edgeStyle=none;html=1;entryX=0.5;entryY=0;entryDx=0;entryDy=0;fontSize=12;endArrow=none;endFill=0;exitX=0.25;exitY=1;exitDx=0;exitDy=0;" edge="1" parent="1" source="2" target="28">
                    <mxGeometry relative="1" as="geometry"/>
                </mxCell>
                <mxCell id="2" value="Sprite Batch&amp;nbsp;&lt;font style=&quot;font-size: 12px&quot;&gt;(ggez)&lt;/font&gt;" style="text;html=1;strokeColor=none;fillColor=none;align=center;verticalAlign=middle;whiteSpace=wrap;rounded=0;fontSize=22;" vertex="1" parent="1">
                    <mxGeometry x="95" y="530" width="165" height="40" as="geometry"/>
                </mxCell>
                <mxCell id="26" value="" style="edgeStyle=none;html=1;fontSize=12;endArrow=none;endFill=0;exitX=0.25;exitY=1;exitDx=0;exitDy=0;" edge="1" parent="1" source="3" target="25">
                    <mxGeometry relative="1" as="geometry"/>
                </mxCell>
                <mxCell id="3" value="Atlas&amp;nbsp;&lt;font style=&quot;font-size: 12px&quot;&gt;(atlas.rs)&lt;/font&gt;" style="text;html=1;strokeColor=none;fillColor=none;align=center;verticalAlign=middle;whiteSpace=wrap;rounded=0;fontSize=22;" vertex="1" parent="1">
                    <mxGeometry x="490" y="290" width="110" height="50" as="geometry"/>
                </mxCell>
                <mxCell id="11" value="" style="edgeStyle=none;html=1;fontSize=14;endArrow=none;endFill=0;exitX=0.25;exitY=1;exitDx=0;exitDy=0;" edge="1" parent="1" source="4" target="9">
                    <mxGeometry relative="1" as="geometry"/>
                </mxCell>
                <mxCell id="4" value="PlayerSprite&amp;nbsp;&lt;font style=&quot;font-size: 12px&quot;&gt;(player_sprite.rs)&lt;/font&gt;" style="text;html=1;strokeColor=none;fillColor=none;align=center;verticalAlign=middle;whiteSpace=wrap;rounded=0;fontSize=22;" vertex="1" parent="1">
                    <mxGeometry x="490" y="550" width="320" height="50" as="geometry"/>
                </mxCell>
                <mxCell id="7" value="where images live in memory" style="text;html=1;strokeColor=none;fillColor=none;align=center;verticalAlign=middle;whiteSpace=wrap;rounded=0;fontSize=14;fontStyle=2" vertex="1" parent="1">
                    <mxGeometry x="190" y="580" width="130" height="40" as="geometry"/>
                </mxCell>
                <mxCell id="9" value="struct:&lt;br&gt;- idle_sprites&lt;br&gt;&lt;div&gt;&lt;span&gt;- walking_sprites&lt;/span&gt;&lt;/div&gt;" style="text;html=1;strokeColor=none;fillColor=none;align=left;verticalAlign=middle;whiteSpace=wrap;rounded=0;fontSize=14;" vertex="1" parent="1">
                    <mxGeometry x="520" y="700" width="110" height="60" as="geometry"/>
                </mxCell>
                <mxCell id="12" value="provides functions to draw a sprite into a given batch&amp;nbsp;" style="text;html=1;strokeColor=none;fillColor=none;align=center;verticalAlign=middle;whiteSpace=wrap;rounded=0;fontSize=14;fontStyle=2" vertex="1" parent="1">
                    <mxGeometry x="690" y="670" width="110" height="80" as="geometry"/>
                </mxCell>
                <mxCell id="22" value="" style="edgeStyle=none;html=1;fontSize=14;endArrow=none;endFill=0;exitX=0.25;exitY=1;exitDx=0;exitDy=0;" edge="1" parent="1" source="17" target="21">
                    <mxGeometry relative="1" as="geometry"/>
                </mxCell>
                <mxCell id="17" value="&lt;font style=&quot;font-size: 22px&quot;&gt;Sprite&amp;nbsp;&lt;/font&gt;&lt;font style=&quot;font-size: 12px&quot;&gt;(ggez)&lt;/font&gt;" style="text;html=1;strokeColor=none;fillColor=none;align=center;verticalAlign=middle;whiteSpace=wrap;rounded=0;fontSize=22;" vertex="1" parent="1">
                    <mxGeometry x="107.5" y="290" width="140" height="50" as="geometry"/>
                </mxCell>
                <mxCell id="21" value="struct:&lt;br&gt;- rectangle&lt;br&gt;&lt;div&gt;&lt;span&gt;- scale&lt;/span&gt;&lt;/div&gt;" style="text;html=1;strokeColor=none;fillColor=none;align=left;verticalAlign=middle;whiteSpace=wrap;rounded=0;fontSize=14;" vertex="1" parent="1">
                    <mxGeometry x="90" y="390" width="110" height="50" as="geometry"/>
                </mxCell>
                <mxCell id="25" value="&lt;div style=&quot;text-align: left&quot;&gt;&lt;span&gt;struct:&lt;/span&gt;&lt;/div&gt;&lt;div style=&quot;text-align: left&quot;&gt;&lt;span&gt;- filename&lt;/span&gt;&lt;/div&gt;&lt;div style=&quot;text-align: left&quot;&gt;&lt;span&gt;- frame&lt;/span&gt;&lt;/div&gt;" style="text;html=1;strokeColor=none;fillColor=none;align=center;verticalAlign=middle;whiteSpace=wrap;rounded=0;fontSize=12;" vertex="1" parent="1">
                    <mxGeometry x="460" y="380" width="110" height="50" as="geometry"/>
                </mxCell>
                <mxCell id="28" value="struct:&lt;br&gt;- image&lt;br&gt;- draw_params&lt;br&gt;&lt;div&gt;&lt;span&gt;- blend_mode&lt;/span&gt;&lt;/div&gt;" style="text;html=1;strokeColor=none;fillColor=none;align=left;verticalAlign=middle;whiteSpace=wrap;rounded=0;fontSize=14;" vertex="1" parent="1">
                    <mxGeometry x="80" y="660" width="110" height="50" as="geometry"/>
                </mxCell>
                <mxCell id="30" value="a &quot;map&quot;, the loaded json file that tells us how to read the image" style="text;html=1;strokeColor=none;fillColor=none;align=center;verticalAlign=middle;whiteSpace=wrap;rounded=0;fontSize=14;fontStyle=2" vertex="1" parent="1">
                    <mxGeometry x="600" y="330" width="155" height="90" as="geometry"/>
                </mxCell>
                <mxCell id="31" value="struct that stores organized sprites" style="text;html=1;strokeColor=none;fillColor=none;align=center;verticalAlign=middle;whiteSpace=wrap;rounded=0;fontSize=14;fontStyle=2" vertex="1" parent="1">
                    <mxGeometry x="680" y="610" width="110" height="60" as="geometry"/>
                </mxCell>
                <mxCell id="36" style="edgeStyle=none;html=1;fontSize=12;endArrow=classicThin;endFill=1;" edge="1" parent="1" source="34" target="35">
                    <mxGeometry relative="1" as="geometry"/>
                </mxCell>
                <mxCell id="34" value="&lt;ol&gt;&lt;li&gt;Load player image in memory&lt;/li&gt;&lt;li&gt;Load mapping of sprites in the image&lt;/li&gt;&lt;li&gt;Draw sprites&lt;/li&gt;&lt;/ol&gt;" style="text;html=1;align=left;verticalAlign=middle;resizable=0;points=[];autosize=1;strokeColor=none;fillColor=none;fontSize=12;" vertex="1" parent="1">
                    <mxGeometry x="40" y="925" width="250" height="90" as="geometry"/>
                </mxCell>
                <mxCell id="35" value="&lt;ol&gt;&lt;li&gt;&lt;span&gt;Create player Sprite Batch&lt;/span&gt;&lt;/li&gt;&lt;li&gt;&lt;span&gt;Create PlayerSprite&lt;br&gt;- create atlas&lt;/span&gt;&lt;/li&gt;&lt;li&gt;Draw sprites&lt;br&gt;- call PlayerSprite.draw with our requirements&lt;/li&gt;&lt;/ol&gt;" style="text;html=1;align=left;verticalAlign=middle;resizable=0;points=[];autosize=1;strokeColor=none;fillColor=none;fontSize=12;" vertex="1" parent="1">
                    <mxGeometry x="480" y="910" width="300" height="120" as="geometry"/>
                </mxCell>
            </root>
        </mxGraphModel>
    </diagram>
</mxfile>